<?xml version="1.0" encoding="utf-8"?>
<svg xmlns="http://www.w3.org/2000/svg" xmlns:xlink="http://www.w3.org/1999/xlink" style="margin: auto; background: none; display: block; shape-rendering: auto;" width="200px" height="200px" viewBox="0 0 100 100" preserveAspectRatio="xMidYMid">
<g transform="rotate(0 50 50)">
  <rect x="48.5" y="24" rx="1.5" ry="2.04" width="3" height="12" fill="#4429b4">
    <animate attributeName="opacity" values="1;0" keyTimes="0;1" dur="2.7027027027027026s" begin="-2.4324324324324325s" repeatCount="indefinite"></animate>
  </rect>
</g><g transform="rotate(36 50 50)">
  <rect x="48.5" y="24" rx="1.5" ry="2.04" width="3" height="12" fill="#4429b4">
    <animate attributeName="opacity" values="1;0" keyTimes="0;1" dur="2.7027027027027026s" begin="-2.162162162162162s" repeatCount="indefinite"></animate>
  </rect>
</g><g transform="rotate(72 50 50)">
  <rect x="48.5" y="24" rx="1.5" ry="2.04" width="3" height="12" fill="#4429b4">
    <animate attributeName="opacity" values="1;0" keyTimes="0;1" dur="2.7027027027027026s" begin="-1.8918918918918919s" repeatCount="indefinite"></animate>
  </rect>
</g><g transform="rotate(108 50 50)">
  <rect x="48.5" y="24" rx="1.5" ry="2.04" width="3" height="12" fill="#4429b4">
    <animate attributeName="opacity" values="1;0" keyTimes="0;1" dur="2.7027027027027026s" begin="-1.6216216216216215s" repeatCount="indefinite"></animate>
  </rect>
</g><g transform="rotate(144 50 50)">
  <rect x="48.5" y="24" rx="1.5" ry="2.04" width="3" height="12" fill="#4429b4">
    <animate attributeName="opacity" values="1;0" keyTimes="0;1" dur="2.7027027027027026s" begin="-1.3513513513513513s" repeatCount="indefinite"></animate>
  </rect>
</g><g transform="rotate(180 50 50)">
  <rect x="48.5" y="24" rx="1.5" ry="2.04" width="3" height="12" fill="#4429b4">
    <animate attributeName="opacity" values="1;0" keyTimes="0;1" dur="2.7027027027027026s" begin="-1.081081081081081s" repeatCount="indefinite"></animate>
  </rect>
</g><g transform="rotate(216 50 50)">
  <rect x="48.5" y="24" rx="1.5" ry="2.04" width="3" height="12" fill="#4429b4">
    <animate attributeName="opacity" values="1;0" keyTimes="0;1" dur="2.7027027027027026s" begin="-0.8108108108108107s" repeatCount="indefinite"></animate>
  </rect>
</g><g transform="rotate(252 50 50)">
  <rect x="48.5" y="24" rx="1.5" ry="2.04" width="3" height="12" fill="#4429b4">
    <animate attributeName="opacity" values="1;0" keyTimes="0;1" dur="2.7027027027027026s" begin="-0.5405405405405405s" repeatCount="indefinite"></animate>
  </rect>
</g><g transform="rotate(288 50 50)">
  <rect x="48.5" y="24" rx="1.5" ry="2.04" width="3" height="12" fill="#4429b4">
    <animate attributeName="opacity" values="1;0" keyTimes="0;1" dur="2.7027027027027026s" begin="-0.27027027027027023s" repeatCount="indefinite"></animate>
  </rect>
</g><g transform="rotate(324 50 50)">
  <rect x="48.5" y="24" rx="1.5" ry="2.04" width="3" height="12" fill="#4429b4">
    <animate attributeName="opacity" values="1;0" keyTimes="0;1" dur="2.7027027027027026s" begin="0s" repeatCount="indefinite"></animate>
  </rect>
</g>
<!-- [ldio] generated by https://loading.io/ --></svg>